<svg id="SvgjsSvg1632" width="1550" height="1263" xmlns="http://www.w3.org/2000/svg" version="1.1" xmlns:xlink="http://www.w3.org/1999/xlink" xmlns:svgjs="http://svgjs.com/svgjs"><defs id="SvgjsDefs1633"><marker id="SvgjsMarker1713" markerWidth="16" markerHeight="12" refX="16" refY="6" viewBox="0 0 16 12" orient="auto" markerUnits="userSpaceOnUse" stroke-dasharray="0,0"><path id="SvgjsPath1714" d="M0,2 L14,6 L0,11 L0,2" fill="#323232" stroke="#323232" stroke-width="2"></path></marker><marker id="SvgjsMarker1723" markerWidth="16" markerHeight="12" refX="16" refY="6" viewBox="0 0 16 12" orient="auto" markerUnits="userSpaceOnUse" stroke-dasharray="0,0"><path id="SvgjsPath1724" d="M0,2 L14,6 L0,11 L0,2" fill="#323232" stroke="#323232" stroke-width="2"></path></marker><marker id="SvgjsMarker1733" markerWidth="16" markerHeight="12" refX="16" refY="6" viewBox="0 0 16 12" orient="auto" markerUnits="userSpaceOnUse" stroke-dasharray="0,0"><path id="SvgjsPath1734" d="M0,2 L14,6 L0,11 L0,2" fill="#323232" stroke="#323232" stroke-width="2"></path></marker><marker id="SvgjsMarker1773" markerWidth="16" markerHeight="12" refX="16" refY="6" viewBox="0 0 16 12" orient="auto" markerUnits="userSpaceOnUse" stroke-dasharray="0,0"><path id="SvgjsPath1774" d="M0,2 L14,6 L0,11 L0,2" fill="#323232" stroke="#323232" stroke-width="2"></path></marker><marker id="SvgjsMarker1777" markerWidth="16" markerHeight="12" refX="16" refY="6" viewBox="0 0 16 12" orient="auto" markerUnits="userSpaceOnUse" stroke-dasharray="0,0"><path id="SvgjsPath1778" d="M0,2 L14,6 L0,11 L0,2" fill="#323232" stroke="#323232" stroke-width="2"></path></marker><marker id="SvgjsMarker1787" markerWidth="16" markerHeight="12" refX="16" refY="6" viewBox="0 0 16 12" orient="auto" markerUnits="userSpaceOnUse" stroke-dasharray="0,0"><path id="SvgjsPath1788" d="M0,2 L14,6 L0,11 L0,2" fill="#323232" stroke="#323232" stroke-width="2"></path></marker><marker id="SvgjsMarker1807" markerWidth="16" markerHeight="12" refX="16" refY="6" viewBox="0 0 16 12" orient="auto" markerUnits="userSpaceOnUse" stroke-dasharray="0,0"><path id="SvgjsPath1808" d="M0,2 L14,6 L0,11 L0,2" fill="#323232" stroke="#323232" stroke-width="2"></path></marker><marker id="SvgjsMarker1811" markerWidth="16" markerHeight="12" refX="16" refY="6" viewBox="0 0 16 12" orient="auto" markerUnits="userSpaceOnUse" stroke-dasharray="0,0"><path id="SvgjsPath1812" d="M0,2 L14,6 L0,11 L0,2" fill="#323232" stroke="#323232" stroke-width="2"></path></marker><marker id="SvgjsMarker1815" markerWidth="16" markerHeight="12" refX="16" refY="6" viewBox="0 0 16 12" orient="auto" markerUnits="userSpaceOnUse" stroke-dasharray="0,0"><path id="SvgjsPath1816" d="M0,2 L14,6 L0,11 L0,2" fill="#323232" stroke="#323232" stroke-width="2"></path></marker><marker id="SvgjsMarker1819" markerWidth="16" markerHeight="12" refX="16" refY="6" viewBox="0 0 16 12" orient="auto" markerUnits="userSpaceOnUse" stroke-dasharray="0,0"><path id="SvgjsPath1820" d="M0,2 L14,6 L0,11 L0,2" fill="#323232" stroke="#323232" stroke-width="2"></path></marker><marker id="SvgjsMarker1871" markerWidth="16" markerHeight="12" refX="16" refY="6" viewBox="0 0 16 12" orient="auto" markerUnits="userSpaceOnUse" stroke-dasharray="0,0"><path id="SvgjsPath1872" d="M0,2 L14,6 L0,11 L0,2" fill="#323232" stroke="#323232" stroke-width="2"></path></marker><marker id="SvgjsMarker1885" markerWidth="16" markerHeight="12" refX="16" refY="6" viewBox="0 0 16 12" orient="auto" markerUnits="userSpaceOnUse" stroke-dasharray="0,0"><path id="SvgjsPath1886" d="M0,2 L14,6 L0,11 L0,2" fill="#323232" stroke="#323232" stroke-width="2"></path></marker><marker id="SvgjsMarker1899" markerWidth="16" markerHeight="12" refX="16" refY="6" viewBox="0 0 16 12" orient="auto" markerUnits="userSpaceOnUse" stroke-dasharray="0,0"><path id="SvgjsPath1900" d="M0,2 L14,6 L0,11 L0,2" fill="#323232" stroke="#323232" stroke-width="2"></path></marker><marker id="SvgjsMarker1919" markerWidth="16" markerHeight="12" refX="16" refY="6" viewBox="0 0 16 12" orient="auto" markerUnits="userSpaceOnUse" stroke-dasharray="0,0"><path id="SvgjsPath1920" d="M0,2 L14,6 L0,11 L0,2" fill="#323232" stroke="#323232" stroke-width="2"></path></marker><marker id="SvgjsMarker1923" markerWidth="16" markerHeight="12" refX="16" refY="6" viewBox="0 0 16 12" orient="auto" markerUnits="userSpaceOnUse" stroke-dasharray="0,0"><path id="SvgjsPath1924" d="M0,2 L14,6 L0,11 L0,2" fill="#323232" stroke="#323232" stroke-width="2"></path></marker><marker id="SvgjsMarker1927" markerWidth="16" markerHeight="12" refX="16" refY="6" viewBox="0 0 16 12" orient="auto" markerUnits="userSpaceOnUse" stroke-dasharray="0,0"><path id="SvgjsPath1928" d="M0,2 L14,6 L0,11 L0,2" fill="#323232" stroke="#323232" stroke-width="2"></path></marker><marker id="SvgjsMarker1931" markerWidth="16" markerHeight="12" refX="16" refY="6" viewBox="0 0 16 12" orient="auto" markerUnits="userSpaceOnUse" stroke-dasharray="0,0"><path id="SvgjsPath1932" d="M0,2 L14,6 L0,11 L0,2" fill="#323232" stroke="#323232" stroke-width="2"></path></marker><marker id="SvgjsMarker1935" markerWidth="16" markerHeight="12" refX="16" refY="6" viewBox="0 0 16 12" orient="auto" markerUnits="userSpaceOnUse" stroke-dasharray="0,0"><path id="SvgjsPath1936" d="M0,2 L14,6 L0,11 L0,2" fill="#323232" stroke="#323232" stroke-width="2"></path></marker><marker id="SvgjsMarker1939" markerWidth="16" markerHeight="12" refX="16" refY="6" viewBox="0 0 16 12" orient="auto" markerUnits="userSpaceOnUse" stroke-dasharray="0,0"><path id="SvgjsPath1940" d="M0,2 L14,6 L0,11 L0,2" fill="#323232" stroke="#323232" stroke-width="2"></path></marker><marker id="SvgjsMarker1943" markerWidth="16" markerHeight="12" refX="16" refY="6" viewBox="0 0 16 12" orient="auto" markerUnits="userSpaceOnUse" stroke-dasharray="0,0"><path id="SvgjsPath1944" d="M0,2 L14,6 L0,11 L0,2" fill="#323232" stroke="#323232" stroke-width="2"></path></marker></defs><g id="SvgjsG1634" transform="translate(25,25)"><path id="SvgjsPath1635" d="M 0 0L 1500 0L 1500 1213.4444444444443L 0 1213.4444444444443Z" stroke="rgba(50,50,50,1)" stroke-width="2" fill="none"></path><path id="SvgjsPath1636" d="M 0 0L 1500 0L 1500 40L 0 40Z" stroke="rgba(50,50,50,1)" stroke-width="2" fill-opacity="1" fill="#ffffff"></path><g id="SvgjsG1637"><text id="SvgjsText1638" font-family="微软雅黑" text-anchor="middle" font-size="16px" width="1480px" fill="#323232" font-weight="400" align="middle" anchor="middle" family="微软雅黑" size="16px" weight="400" font-style="" opacity="1" y="7.6" transform="rotate(0)"><tspan id="SvgjsTspan1639" dy="20" x="750"><tspan id="SvgjsTspan1640" style="text-decoration:;">圈群主要流程</tspan></tspan></text></g></g><g id="SvgjsG1641" transform="translate(25,65)"><path id="SvgjsPath1642" d="M 0 0L 250 0L 250 1173.4444444444443L 0 1173.4444444444443Z" stroke="rgba(50,50,50,1)" stroke-width="2" fill="none"></path><path id="SvgjsPath1643" d="M 0 0L 250 0L 250 30L 0 30Z" stroke="rgba(50,50,50,1)" stroke-width="2" fill-opacity="1" fill="#ffffff"></path><g id="SvgjsG1644"><text id="SvgjsText1645" font-family="微软雅黑" text-anchor="middle" font-size="13px" width="230px" fill="#323232" font-weight="400" align="middle" anchor="middle" family="微软雅黑" size="13px" weight="400" font-style="" opacity="1" y="5.05" transform="rotate(0)"><tspan id="SvgjsTspan1646" dy="16" x="125"><tspan id="SvgjsTspan1647" style="text-decoration:;">控制台</tspan></tspan></text></g></g><g id="SvgjsG1648" transform="translate(275,65)"><path id="SvgjsPath1649" d="M 0 0L 250 0L 250 1173.4444444444443L 0 1173.4444444444443Z" stroke="rgba(50,50,50,1)" stroke-width="2" fill="none"></path><path id="SvgjsPath1650" d="M 0 0L 250 0L 250 30L 0 30Z" stroke="rgba(50,50,50,1)" stroke-width="2" fill-opacity="1" fill="#ffffff"></path><g id="SvgjsG1651"><text id="SvgjsText1652" font-family="微软雅黑" text-anchor="middle" font-size="13px" width="230px" fill="#323232" font-weight="400" align="middle" anchor="middle" family="微软雅黑" size="13px" weight="400" font-style="" opacity="1" y="5.05" transform="rotate(0)"><tspan id="SvgjsTspan1653" dy="16" x="125"><tspan id="SvgjsTspan1654" style="text-decoration:;">圈群</tspan></tspan></text></g></g><g id="SvgjsG1655" transform="translate(525,65)"><path id="SvgjsPath1656" d="M 0 0L 250 0L 250 1173.4444444444443L 0 1173.4444444444443Z" stroke="rgba(50,50,50,1)" stroke-width="2" fill="none"></path><path id="SvgjsPath1657" d="M 0 0L 250 0L 250 30L 0 30Z" stroke="rgba(50,50,50,1)" stroke-width="2" fill-opacity="1" fill="#ffffff"></path><g id="SvgjsG1658"><text id="SvgjsText1659" font-family="微软雅黑" text-anchor="middle" font-size="13px" width="230px" fill="#323232" font-weight="400" align="middle" anchor="middle" family="微软雅黑" size="13px" weight="400" font-style="" opacity="1" y="5.05" transform="rotate(0)"><tspan id="SvgjsTspan1660" dy="16" x="125"><tspan id="SvgjsTspan1661" style="text-decoration:;">共享数据存储</tspan></tspan></text></g></g><g id="SvgjsG1662" transform="translate(775,65)"><path id="SvgjsPath1663" d="M 0 0L 250 0L 250 1173.4444444444443L 0 1173.4444444444443Z" stroke="rgba(50,50,50,1)" stroke-width="2" fill="none"></path><path id="SvgjsPath1664" d="M 0 0L 250 0L 250 30L 0 30Z" stroke="rgba(50,50,50,1)" stroke-width="2" fill-opacity="1" fill="#ffffff"></path><g id="SvgjsG1665"><text id="SvgjsText1666" font-family="微软雅黑" text-anchor="middle" font-size="13px" width="230px" fill="#323232" font-weight="400" align="middle" anchor="middle" family="微软雅黑" size="13px" weight="400" font-style="" opacity="1" y="5.05" transform="rotate(0)"><tspan id="SvgjsTspan1667" dy="16" x="125"><tspan id="SvgjsTspan1668" style="text-decoration:;">用户中心</tspan></tspan></text></g></g><g id="SvgjsG1669" transform="translate(1025,65)"><path id="SvgjsPath1670" d="M 0 0L 250 0L 250 1173.4444444444443L 0 1173.4444444444443Z" stroke="rgba(50,50,50,1)" stroke-width="2" fill="none"></path><path id="SvgjsPath1671" d="M 0 0L 250 0L 250 30L 0 30Z" stroke="rgba(50,50,50,1)" stroke-width="2" fill-opacity="1" fill="#ffffff"></path><g id="SvgjsG1672"><text id="SvgjsText1673" font-family="微软雅黑" text-anchor="middle" font-size="13px" width="230px" fill="#323232" font-weight="400" align="middle" anchor="middle" family="微软雅黑" size="13px" weight="400" font-style="" opacity="1" y="5.05" transform="rotate(0)"><tspan id="SvgjsTspan1674" dy="16" x="125"><tspan id="SvgjsTspan1675" style="text-decoration:;">投放引擎</tspan></tspan></text></g></g><g id="SvgjsG1676" transform="translate(1275,65)"><path id="SvgjsPath1677" d="M 0 0L 250 0L 250 1173.4444444444443L 0 1173.4444444444443Z" stroke="rgba(50,50,50,1)" stroke-width="2" fill="none"></path><path id="SvgjsPath1678" d="M 0 0L 250 0L 250 30L 0 30Z" stroke="rgba(50,50,50,1)" stroke-width="2" fill-opacity="1" fill="#ffffff"></path><g id="SvgjsG1679"><text id="SvgjsText1680" font-family="微软雅黑" text-anchor="middle" font-size="13px" width="230px" fill="#323232" font-weight="400" align="middle" anchor="middle" family="微软雅黑" size="13px" weight="400" font-style="" opacity="1" y="5.05" transform="rotate(0)"><tspan id="SvgjsTspan1681" dy="16" x="125"><tspan id="SvgjsTspan1682" style="text-decoration:;">投放渠道</tspan></tspan></text></g></g><g id="SvgjsG1683" transform="translate(307.77777777777777,107)"><path id="SvgjsPath1684" d="M 0 4Q 0 0 4 0L 183.77777777777777 0Q 187.77777777777777 0 187.77777777777777 4L 187.77777777777777 608.5555555555555Q 187.77777777777777 612.5555555555555 183.77777777777777 612.5555555555555L 4 612.5555555555555Q 0 612.5555555555555 0 608.5555555555555Z" stroke-dasharray="10,6" stroke="rgba(50,50,50,1)" stroke-width="2" fill-opacity="1" fill="#ffffff"></path><g id="SvgjsG1685"><text id="SvgjsText1686" font-family="微软雅黑" text-anchor="middle" font-size="13px" width="178px" fill="#323232" font-weight="400" align="middle" anchor="middle" family="微软雅黑" size="13px" weight="400" font-style="" opacity="1" y="34.80396825396825" transform="rotate(0)"><tspan id="SvgjsTspan1687" dy="16" x="94"><tspan id="SvgjsTspan1688" style="text-decoration:;">Container</tspan></tspan></text></g></g><g id="SvgjsG1689" transform="translate(572.0987654320991,249.65275199173658)"><path id="SvgjsPath1690" d="M 0 4Q 0 0 4 0L 131.55555555555543 0Q 135.55555555555543 0 135.55555555555543 4L 135.55555555555543 277.5555555555568Q 135.55555555555543 281.5555555555568 131.55555555555543 281.5555555555568L 4 281.5555555555568Q 0 281.5555555555568 0 277.5555555555568Z" stroke-dasharray="10,6,3,6" stroke="rgba(50,50,50,1)" stroke-width="2" fill-opacity="1" fill="#ffffff"></path><g id="SvgjsG1691"><text id="SvgjsText1692" font-family="微软雅黑" text-anchor="middle" font-size="13px" width="126px" fill="#323232" font-weight="400" align="middle" anchor="middle" family="微软雅黑" size="13px" weight="400" font-style="" opacity="1" y="11.1611111111112" transform="rotate(0)"></text></g></g><g id="SvgjsG1693" transform="translate(338.8888888888889,132.88888888888889)"><path id="SvgjsPath1694" d="M 0 0L 131 0L 131 63L 0 63Z" stroke="rgba(50,50,50,1)" stroke-width="2" fill-opacity="1" fill="#ffffff"></path><g id="SvgjsG1695"><text id="SvgjsText1696" font-family="微软雅黑" text-anchor="middle" font-size="13px" width="111px" fill="#323232" font-weight="400" align="middle" anchor="middle" family="微软雅黑" size="13px" weight="400" font-style="" opacity="1" y="21.55" transform="rotate(0)"><tspan id="SvgjsTspan1697" dy="16" x="65.5"><tspan id="SvgjsTspan1698" style="text-decoration:;">客群配置管理</tspan></tspan></text></g></g><g id="SvgjsG1699" transform="translate(338.8888888888889,548.1145939206674)"><path id="SvgjsPath1700" d="M 0 0L 131 0L 131 63L 0 63Z" stroke="rgba(50,50,50,1)" stroke-width="2" fill-opacity="1" fill="#ffffff"></path><g id="SvgjsG1701"><text id="SvgjsText1702" font-family="微软雅黑" text-anchor="middle" font-size="13px" width="111px" fill="#323232" font-weight="400" align="middle" anchor="middle" family="微软雅黑" size="13px" weight="400" font-style="" opacity="1" y="21.55" transform="rotate(0)"><tspan id="SvgjsTspan1703" dy="16" x="65.5"><tspan id="SvgjsTspan1704" style="text-decoration:;">客群任务调度</tspan></tspan></text></g></g><g id="SvgjsG1705" transform="translate(842.7777777777778,134.35802469135803)"><path id="SvgjsPath1706" d="M 0 0L 130 0L 130 70L 0 70Z" stroke="rgba(50,50,50,1)" stroke-width="2" fill-opacity="1" fill="#ffffff"></path><g id="SvgjsG1707"><text id="SvgjsText1708" font-family="微软雅黑" text-anchor="middle" font-size="13px" width="110px" fill="#323232" font-weight="400" align="middle" anchor="middle" family="微软雅黑" size="13px" weight="400" font-style="" opacity="1" y="25.05" transform="rotate(0)"><tspan id="SvgjsTspan1709" dy="16" x="65"><tspan id="SvgjsTspan1710" style="text-decoration:;">客群计算</tspan></tspan></text></g></g><g id="SvgjsG1711"><path id="SvgjsPath1712" d="M469.8888888888889 579.6145939206676L485.22222222222285 579.6145939206676L485.22222222222285 169.35802469135803L842.7777777777778 169.35802469135803" stroke="#323232" stroke-width="2" fill="none" marker-end="url(#SvgjsMarker1713)"></path></g><g id="SvgjsG1715" transform="translate(338.8888888888889,618.1944139529211)"><path id="SvgjsPath1716" d="M 0 0L 131 0L 131 63L 0 63Z" stroke="rgba(50,50,50,1)" stroke-width="2" fill-opacity="1" fill="#ffffff"></path><g id="SvgjsG1717"><text id="SvgjsText1718" font-family="微软雅黑" text-anchor="middle" font-size="13px" width="111px" fill="#323232" font-weight="400" align="middle" anchor="middle" family="微软雅黑" size="13px" weight="400" font-style="" opacity="1" y="21.55" transform="rotate(0)"><tspan id="SvgjsTspan1719" dy="16" x="65.5"><tspan id="SvgjsTspan1720" style="text-decoration:;">异步任务回调</tspan></tspan></text></g></g><g id="SvgjsG1721"><path id="SvgjsPath1722" d="M215 164.22222222222223L257.5 164.22222222222223L257.5 164.22222222222223L300 164.22222222222223" stroke="#323232" stroke-width="2" fill="none" marker-end="url(#SvgjsMarker1723)"></path></g><g id="SvgjsG1725" transform="translate(1087,686.8888888888885)"><path id="SvgjsPath1726" d="M 0 0L 130 0L 130 45L 0 45Z" stroke="rgba(50,50,50,1)" stroke-width="2" fill-opacity="1" fill="#ffffff"></path><g id="SvgjsG1727"><text id="SvgjsText1728" font-family="微软雅黑" text-anchor="middle" font-size="13px" width="110px" fill="#323232" font-weight="400" align="middle" anchor="middle" family="微软雅黑" size="13px" weight="400" font-style="" opacity="1" y="12.55" transform="rotate(0)"><tspan id="SvgjsTspan1729" dy="16" x="65"><tspan id="SvgjsTspan1730" style="text-decoration:;">节点触发</tspan></tspan></text></g></g><g id="SvgjsG1731"><path id="SvgjsPath1732" d="M404.3888888888889 681.1944139529211L404.3888888888889 709.3888888888885L1087 709.3888888888885" stroke="#323232" stroke-width="2" fill="none" marker-end="url(#SvgjsMarker1733)"></path></g><g id="SvgjsG1735" transform="translate(338.8888888888889,202.29735333577258)"><path id="SvgjsPath1736" d="M 0 0L 131 0L 131 63L 0 63Z" stroke="rgba(50,50,50,1)" stroke-width="2" fill-opacity="1" fill="#ffffff"></path><g id="SvgjsG1737"><text id="SvgjsText1738" font-family="微软雅黑" text-anchor="middle" font-size="13px" width="111px" fill="#323232" font-weight="400" align="middle" anchor="middle" family="微软雅黑" size="13px" weight="400" font-style="" opacity="1" y="21.55" transform="rotate(0)"><tspan id="SvgjsTspan1739" dy="16" x="65.5"><tspan id="SvgjsTspan1740" style="text-decoration:;">入群规则管理</tspan></tspan></text></g></g><g id="SvgjsG1741" transform="translate(338.8888888888889,270.1836809366995)"><path id="SvgjsPath1742" d="M 0 0L 131 0L 131 63L 0 63Z" stroke="rgba(50,50,50,1)" stroke-width="2" fill-opacity="1" fill="#ffffff"></path><g id="SvgjsG1743"><text id="SvgjsText1744" font-family="微软雅黑" text-anchor="middle" font-size="13px" width="111px" fill="#323232" font-weight="400" align="middle" anchor="middle" family="微软雅黑" size="13px" weight="400" font-style="" opacity="1" y="21.55" transform="rotate(0)"><tspan id="SvgjsTspan1745" dy="16" x="65.5"><tspan id="SvgjsTspan1746" style="text-decoration:;">黑白名单</tspan></tspan></text></g></g><g id="SvgjsG1747" transform="translate(338.8888888888889,406.9710940358578)"><path id="SvgjsPath1748" d="M 0 0L 131 0L 131 63L 0 63Z" stroke="rgba(50,50,50,1)" stroke-width="2" fill-opacity="1" fill="#ffffff"></path><g id="SvgjsG1749"><text id="SvgjsText1750" font-family="微软雅黑" text-anchor="middle" font-size="13px" width="111px" fill="#323232" font-weight="400" align="middle" anchor="middle" family="微软雅黑" size="13px" weight="400" font-style="" opacity="1" y="21.55" transform="rotate(0)"><tspan id="SvgjsTspan1751" dy="16" x="65.5"><tspan id="SvgjsTspan1752" style="text-decoration:;">指令执行</tspan></tspan></text></g></g><g id="SvgjsG1753" transform="translate(85,134.22222222222223)"><path id="SvgjsPath1754" d="M 0 0L 130 0L 130 60L 0 60Z" stroke="rgba(50,50,50,1)" stroke-width="2" fill-opacity="1" fill="#ffffff"></path><g id="SvgjsG1755"><text id="SvgjsText1756" font-family="微软雅黑" text-anchor="middle" font-size="13px" width="110px" fill="#323232" font-weight="400" align="middle" anchor="middle" family="微软雅黑" size="13px" weight="400" font-style="" opacity="1" y="20.05" transform="rotate(0)"><tspan id="SvgjsTspan1757" dy="16" x="65"><tspan id="SvgjsTspan1758" style="text-decoration:;">已有客群</tspan></tspan></text></g></g><g id="SvgjsG1759" transform="translate(83,225.22222222222217)"><path id="SvgjsPath1760" d="M 0 0L 130 0L 130 60L 0 60Z" stroke="rgba(50,50,50,1)" stroke-width="2" fill-opacity="1" fill="#ffffff"></path><g id="SvgjsG1761"><text id="SvgjsText1762" font-family="微软雅黑" text-anchor="middle" font-size="13px" width="110px" fill="#323232" font-weight="400" align="middle" anchor="middle" family="微软雅黑" size="13px" weight="400" font-style="" opacity="1" y="20.05" transform="rotate(0)"><tspan id="SvgjsTspan1763" dy="16" x="65"><tspan id="SvgjsTspan1764" style="text-decoration:;">新建客群</tspan></tspan></text></g></g><g id="SvgjsG1765" transform="translate(83,334.2222222222222)"><path id="SvgjsPath1766" d="M 0 0L 130 0L 130 60L 0 60Z" stroke="rgba(50,50,50,1)" stroke-width="2" fill-opacity="1" fill="#ffffff"></path><g id="SvgjsG1767"><text id="SvgjsText1768" font-family="微软雅黑" text-anchor="middle" font-size="13px" width="110px" fill="#323232" font-weight="400" align="middle" anchor="middle" family="微软雅黑" size="13px" weight="400" font-style="" opacity="1" y="20.05" transform="rotate(0)"><tspan id="SvgjsTspan1769" dy="16" x="65"><tspan id="SvgjsTspan1770" style="text-decoration:;">导入黑白名单</tspan></tspan></text></g></g><g id="SvgjsG1771"><path id="SvgjsPath1772" d="M213 255.22222222222217L259.27777777777777 255.22222222222217L259.27777777777777 255.22222222222217L305.55555555555554 255.22222222222217" stroke="#323232" stroke-width="2" fill="none" marker-end="url(#SvgjsMarker1773)"></path></g><g id="SvgjsG1775"><path id="SvgjsPath1776" d="M213 364.2222222222222L260.3888888888889 364.2222222222222L260.3888888888889 364L307.77777777777777 364" stroke="#323232" stroke-width="2" fill="none" marker-end="url(#SvgjsMarker1777)"></path></g><g id="SvgjsG1779" transform="translate(590.0000000000002,284.11111111111154)"><path id="SvgjsPath1780" d="M 15 0L 88.33333333333333 0C 103.18181818181819 0 103.18181818181819 70 88.33333333333333 70L 15 70C -5 70 -5 0 15 0ZM 88.33333333333333 0C 73.75 0 73.75 70 88.33333333333333 70C 73.75 70 73.75 0 88.33333333333333 0" stroke="rgba(50,50,50,1)" stroke-width="2" fill-opacity="1" fill="#ffffff"></path><g id="SvgjsG1781"><text id="SvgjsText1782" font-family="微软雅黑" text-anchor="middle" font-size="13px" width="80px" fill="#323232" font-weight="400" align="middle" anchor="middle" family="微软雅黑" size="13px" weight="400" font-style="" opacity="1" y="25.05" transform="rotate(0)"><tspan id="SvgjsTspan1783" dy="16" x="40"><tspan id="SvgjsTspan1784" style="text-decoration:;">共享数据库</tspan></tspan></text></g></g><g id="SvgjsG1785"><path id="SvgjsPath1786" d="M494.44444444444446 389.55555555555554L533.2716049382718 389.55555555555554L533.2716049382718 390.430529769515L572.0987654320991 390.430529769515" stroke="#323232" stroke-width="2" fill="none" marker-end="url(#SvgjsMarker1787)"></path><rect id="SvgjsRect1789" width="26" height="16" x="520.2716049382718" y="381.99304266253523" fill="#ffffff"></rect><text id="SvgjsText1790" font-family="微软雅黑" text-anchor="middle" font-size="13px" width="26px" fill="#323232" font-weight="400" align="top" anchor="middle" family="微软雅黑" size="13px" weight="400" font-style="" opacity="1" y="380.04304266253524" transform="rotate(0)"><tspan id="SvgjsTspan1791" dy="16" x="533.2716049382718"><tspan id="SvgjsTspan1792" style="text-decoration:;">落库</tspan></tspan></text></g><g id="SvgjsG1793" transform="translate(842.7777777777778,275.33333333333326)"><path id="SvgjsPath1794" d="M 0 0L 130 0L 130 70L 0 70Z" stroke="rgba(50,50,50,1)" stroke-width="2" fill-opacity="1" fill="#ffffff"></path><g id="SvgjsG1795"><text id="SvgjsText1796" font-family="微软雅黑" text-anchor="middle" font-size="13px" width="110px" fill="#323232" font-weight="400" align="middle" anchor="middle" family="微软雅黑" size="13px" weight="400" font-style="" opacity="1" y="25.05" transform="rotate(0)"><tspan id="SvgjsTspan1797" dy="16" x="65"><tspan id="SvgjsTspan1798" style="text-decoration:;">按指令圈群写库</tspan></tspan></text></g></g><g id="SvgjsG1799" transform="translate(848.7777777777778,423)"><path id="SvgjsPath1800" d="M 0 0L 130 0L 130 70L 0 70Z" stroke="rgba(50,50,50,1)" stroke-width="2" fill-opacity="1" fill="#ffffff"></path><g id="SvgjsG1801"><text id="SvgjsText1802" font-family="微软雅黑" text-anchor="middle" font-size="13px" width="110px" fill="#323232" font-weight="400" align="middle" anchor="middle" family="微软雅黑" size="13px" weight="400" font-style="" opacity="1" y="25.05" transform="rotate(0)"><tspan id="SvgjsTspan1803" dy="16" x="65"><tspan id="SvgjsTspan1804" style="text-decoration:;">执行结果回调</tspan></tspan></text></g></g><g id="SvgjsG1805"><path id="SvgjsPath1806" d="M913.7777777777778 493L913.7777777777778 649.6944139529211L469.8888888888889 649.6944139529211" stroke="#323232" stroke-width="2" fill="none" marker-end="url(#SvgjsMarker1807)"></path></g><g id="SvgjsG1809"><path id="SvgjsPath1810" d="M907.7777777777778 204.35802469135803L907.7777777777778 239.8456790123456L907.7777777777778 239.8456790123456L907.7777777777778 275.33333333333326" stroke="#323232" stroke-width="2" fill="none" marker-end="url(#SvgjsMarker1811)"></path></g><g id="SvgjsG1813"><path id="SvgjsPath1814" d="M842.7777777777778 310.33333333333326L775.2160493827162 310.33333333333326L775.2160493827162 309.6527519917366L707.6543209876546 309.6527519917366" stroke="#323232" stroke-width="2" fill="none" marker-end="url(#SvgjsMarker1815)"></path></g><g id="SvgjsG1817"><path id="SvgjsPath1818" d="M907.7777777777778 345.33333333333326L907.7777777777778 380.7777777777777L907.7777777777778 380.7777777777777L907.7777777777778 416.2222222222222" stroke="#323232" stroke-width="2" fill="none" marker-end="url(#SvgjsMarker1819)"></path></g><g id="SvgjsG1821" transform="translate(338.8888888888889,340.09952433223543)"><path id="SvgjsPath1822" d="M 0 0L 131 0L 131 63L 0 63Z" stroke="rgba(50,50,50,1)" stroke-width="2" fill-opacity="1" fill="#ffffff"></path><g id="SvgjsG1823"><text id="SvgjsText1824" font-family="微软雅黑" text-anchor="middle" font-size="13px" width="111px" fill="#323232" font-weight="400" align="middle" anchor="middle" family="微软雅黑" size="13px" weight="400" font-style="" opacity="1" y="21.55" transform="rotate(0)"><tspan id="SvgjsTspan1825" dy="16" x="65.5"><tspan id="SvgjsTspan1826" style="text-decoration:;">客群容量预估</tspan></tspan></text></g></g><g id="SvgjsG1827" transform="translate(83,440.2222222222222)"><path id="SvgjsPath1828" d="M 0 0L 130 0L 130 60L 0 60Z" stroke="rgba(50,50,50,1)" stroke-width="2" fill-opacity="1" fill="#ffffff"></path><g id="SvgjsG1829"><text id="SvgjsText1830" font-family="微软雅黑" text-anchor="middle" font-size="13px" width="110px" fill="#323232" font-weight="400" align="middle" anchor="middle" family="微软雅黑" size="13px" weight="400" font-style="" opacity="1" y="20.05" transform="rotate(0)"><tspan id="SvgjsTspan1831" dy="16" x="65"><tspan id="SvgjsTspan1832" style="text-decoration:;">圈群任务触发</tspan></tspan></text></g></g><g id="SvgjsG1833" transform="translate(1336,764.0070111263516)"><path id="SvgjsPath1834" d="M 0 0L 130 0L 130 45L 0 45Z" stroke="rgba(50,50,50,1)" stroke-width="2" fill-opacity="1" fill="#ffffff"></path><g id="SvgjsG1835"><text id="SvgjsText1836" font-family="微软雅黑" text-anchor="middle" font-size="13px" width="110px" fill="#323232" font-weight="400" align="middle" anchor="middle" family="微软雅黑" size="13px" weight="400" font-style="" opacity="1" y="12.55" transform="rotate(0)"><tspan id="SvgjsTspan1837" dy="16" x="65"><tspan id="SvgjsTspan1838" style="text-decoration:;">获取客群</tspan></tspan></text></g></g><g id="SvgjsG1839" transform="translate(1336,862.6666666666662)"><path id="SvgjsPath1840" d="M 0 0L 130 0L 130 45L 0 45Z" stroke="rgba(50,50,50,1)" stroke-width="2" fill-opacity="1" fill="#ffffff"></path><g id="SvgjsG1841"><text id="SvgjsText1842" font-family="微软雅黑" text-anchor="middle" font-size="13px" width="110px" fill="#323232" font-weight="400" align="middle" anchor="middle" family="微软雅黑" size="13px" weight="400" font-style="" opacity="1" y="12.55" transform="rotate(0)"><tspan id="SvgjsTspan1843" dy="16" x="65"><tspan id="SvgjsTspan1844" style="text-decoration:;">获取内容</tspan></tspan></text></g></g><g id="SvgjsG1845" transform="translate(1336,961.8888888888885)"><path id="SvgjsPath1846" d="M 0 0L 130 0L 130 45L 0 45Z" stroke="rgba(50,50,50,1)" stroke-width="2" fill-opacity="1" fill="#ffffff"></path><g id="SvgjsG1847"><text id="SvgjsText1848" font-family="微软雅黑" text-anchor="middle" font-size="13px" width="110px" fill="#323232" font-weight="400" align="middle" anchor="middle" family="微软雅黑" size="13px" weight="400" font-style="" opacity="1" y="12.55" transform="rotate(0)"><tspan id="SvgjsTspan1849" dy="16" x="65"><tspan id="SvgjsTspan1850" style="text-decoration:;">异步投放</tspan></tspan></text></g></g><g id="SvgjsG1851" transform="translate(1336,1061.9999999999995)"><path id="SvgjsPath1852" d="M 0 0L 130 0L 130 45L 0 45Z" stroke="rgba(50,50,50,1)" stroke-width="2" fill-opacity="1" fill="#ffffff"></path><g id="SvgjsG1853"><text id="SvgjsText1854" font-family="微软雅黑" text-anchor="middle" font-size="13px" width="110px" fill="#323232" font-weight="400" align="middle" anchor="middle" family="微软雅黑" size="13px" weight="400" font-style="" opacity="1" y="12.55" transform="rotate(0)"><tspan id="SvgjsTspan1855" dy="16" x="65"><tspan id="SvgjsTspan1856" style="text-decoration:;">投放限流</tspan></tspan></text></g></g><g id="SvgjsG1857" transform="translate(1087,802.2729766803828)"><path id="SvgjsPath1858" d="M 0 0L 130 0L 130 45L 0 45Z" stroke="rgba(50,50,50,1)" stroke-width="2" fill-opacity="1" fill="#ffffff"></path><g id="SvgjsG1859"><text id="SvgjsText1860" font-family="微软雅黑" text-anchor="middle" font-size="13px" width="110px" fill="#323232" font-weight="400" align="middle" anchor="middle" family="微软雅黑" size="13px" weight="400" font-style="" opacity="1" y="12.55" transform="rotate(0)"><tspan id="SvgjsTspan1861" dy="16" x="65"><tspan id="SvgjsTspan1862" style="text-decoration:;">策略执行</tspan></tspan></text></g></g><g id="SvgjsG1863" transform="translate(1336,671.9999999999989)"><path id="SvgjsPath1864" d="M 0 0L 130 0L 130 45L 0 45Z" stroke="rgba(50,50,50,1)" stroke-width="2" fill-opacity="1" fill="#ffffff"></path><g id="SvgjsG1865"><text id="SvgjsText1866" font-family="微软雅黑" text-anchor="middle" font-size="13px" width="110px" fill="#323232" font-weight="400" align="middle" anchor="middle" family="微软雅黑" size="13px" weight="400" font-style="" opacity="1" y="12.55" transform="rotate(0)"><tspan id="SvgjsTspan1867" dy="16" x="65"><tspan id="SvgjsTspan1868" style="text-decoration:;">创建投放任务</tspan></tspan></text></g></g><g id="SvgjsG1869"><path id="SvgjsPath1870" d="M1217 824.7729766803828L1253.1666666666672 824.7729766803828L1253.1666666666672 694.4999999999989L1336 694.4999999999989" stroke="#323232" stroke-width="2" fill="none" marker-end="url(#SvgjsMarker1871)"></path><rect id="SvgjsRect1873" width="26" height="16" x="1240.1666666666672" y="728.3031550068581" fill="#ffffff"></rect><text id="SvgjsText1874" font-family="微软雅黑" text-anchor="middle" font-size="13px" width="26px" fill="#323232" font-weight="400" align="top" anchor="middle" family="微软雅黑" size="13px" weight="400" font-style="" opacity="1" y="726.3531550068581" transform="rotate(0)"><tspan id="SvgjsTspan1875" dy="16" x="1253.1666666666672"><tspan id="SvgjsTspan1876" style="text-decoration:;">调用</tspan></tspan></text></g><g id="SvgjsG1877" transform="translate(1336,1168.2222222222217)"><path id="SvgjsPath1878" d="M 0 0L 130 0L 130 45L 0 45Z" stroke="rgba(50,50,50,1)" stroke-width="2" fill-opacity="1" fill="#ffffff"></path><g id="SvgjsG1879"><text id="SvgjsText1880" font-family="微软雅黑" text-anchor="middle" font-size="13px" width="110px" fill="#323232" font-weight="400" align="middle" anchor="middle" family="微软雅黑" size="13px" weight="400" font-style="" opacity="1" y="12.55" transform="rotate(0)"><tspan id="SvgjsTspan1881" dy="16" x="65"><tspan id="SvgjsTspan1882" style="text-decoration:;">投放统计</tspan></tspan></text></g></g><g id="SvgjsG1883"><path id="SvgjsPath1884" d="M1336 1190.7222222222217L639.8765432098768 1190.7222222222217L639.8765432098768 531.2083075472934" stroke="#323232" stroke-width="2" fill="none" marker-end="url(#SvgjsMarker1885)"></path><rect id="SvgjsRect1887" width="26" height="16" x="645.1813142674742" y="1182.7222222222217" fill="#ffffff"></rect><text id="SvgjsText1888" font-family="微软雅黑" text-anchor="middle" font-size="13px" width="26px" fill="#323232" font-weight="400" align="top" anchor="middle" family="微软雅黑" size="13px" weight="400" font-style="" opacity="1" y="1180.7722222222217" transform="rotate(0)"><tspan id="SvgjsTspan1889" dy="16" x="658.1813142674742"><tspan id="SvgjsTspan1890" style="text-decoration:;">落库</tspan></tspan></text></g><g id="SvgjsG1891" transform="translate(590.0000000000002,355.33333333333394)"><path id="SvgjsPath1892" d="M 15 0L 88.33333333333333 0C 103.18181818181819 0 103.18181818181819 70 88.33333333333333 70L 15 70C -5 70 -5 0 15 0ZM 88.33333333333333 0C 73.75 0 73.75 70 88.33333333333333 70C 73.75 70 73.75 0 88.33333333333333 0" stroke="rgba(50,50,50,1)" stroke-width="2" fill-opacity="1" fill="#ffffff"></path><g id="SvgjsG1893"><text id="SvgjsText1894" font-family="微软雅黑" text-anchor="middle" font-size="13px" width="80px" fill="#323232" font-weight="400" align="middle" anchor="middle" family="微软雅黑" size="13px" weight="400" font-style="" opacity="1" y="25.05" transform="rotate(0)"><tspan id="SvgjsTspan1895" dy="16" x="40"><tspan id="SvgjsTspan1896" style="text-decoration:;">共享数据库</tspan></tspan></text></g></g><g id="SvgjsG1897"><path id="SvgjsPath1898" d="M639.8765432098768 249.65275199173658L639.8765432098768 113.65275199173658L1496 113.65275199173658L1496 786.5070111263516L1466 786.5070111263516" stroke="#323232" stroke-width="2" fill="none" marker-end="url(#SvgjsMarker1899)"></path><rect id="SvgjsRect1901" width="52" height="16" x="1325.3654011722458" y="105.65275199173658" fill="#ffffff"></rect><text id="SvgjsText1902" font-family="微软雅黑" text-anchor="middle" font-size="13px" width="52px" fill="#323232" font-weight="400" align="top" anchor="middle" family="微软雅黑" size="13px" weight="400" font-style="" opacity="1" y="103.70275199173658" transform="rotate(0)"><tspan id="SvgjsTspan1903" dy="16" x="1351.3654011722458"><tspan id="SvgjsTspan1904" style="text-decoration:;">拉取数据</tspan></tspan></text></g><g id="SvgjsG1905" transform="translate(592.2222222222222,425.33333333333394)"><path id="SvgjsPath1906" d="M 15 0L 88.33333333333333 0C 103.18181818181819 0 103.18181818181819 70 88.33333333333333 70L 15 70C -5 70 -5 0 15 0ZM 88.33333333333333 0C 73.75 0 73.75 70 88.33333333333333 70C 73.75 70 73.75 0 88.33333333333333 0" stroke="rgba(50,50,50,1)" stroke-width="2" fill-opacity="1" fill="#ffffff"></path><g id="SvgjsG1907"><text id="SvgjsText1908" font-family="微软雅黑" text-anchor="middle" font-size="13px" width="80px" fill="#323232" font-weight="400" align="middle" anchor="middle" family="微软雅黑" size="13px" weight="400" font-style="" opacity="1" y="25.05" transform="rotate(0)"><tspan id="SvgjsTspan1909" dy="16" x="40"><tspan id="SvgjsTspan1910" style="text-decoration:;">共享数据库</tspan></tspan></text></g></g><g id="SvgjsG1911" transform="translate(338.8888888888889,477.179535595277)"><path id="SvgjsPath1912" d="M 0 0L 131 0L 131 63L 0 63Z" stroke="rgba(50,50,50,1)" stroke-width="2" fill-opacity="1" fill="#ffffff"></path><g id="SvgjsG1913"><text id="SvgjsText1914" font-family="微软雅黑" text-anchor="middle" font-size="13px" width="111px" fill="#323232" font-weight="400" align="middle" anchor="middle" family="微软雅黑" size="13px" weight="400" font-style="" opacity="1" y="21.55" transform="rotate(0)"><tspan id="SvgjsTspan1915" dy="16" x="65.5"><tspan id="SvgjsTspan1916" style="text-decoration:;">共享数据维护</tspan></tspan></text></g></g><g id="SvgjsG1917"><path id="SvgjsPath1918" d="M213 470.2222222222222L259.83333333333337 470.2222222222222L259.83333333333337 470.2222222222222L306.6666666666667 470.2222222222222" stroke="#323232" stroke-width="2" fill="none" marker-end="url(#SvgjsMarker1919)"></path></g><g id="SvgjsG1921"><path id="SvgjsPath1922" d="M1401 716.9999999999989L1401 740.5035055631752L1401 740.5035055631752L1401 764.0070111263516" stroke="#323232" stroke-width="2" fill="none" marker-end="url(#SvgjsMarker1923)"></path></g><g id="SvgjsG1925"><path id="SvgjsPath1926" d="M1401 809.0070111263516L1401 835.8368388965089L1401 835.8368388965089L1401 862.6666666666662" stroke="#323232" stroke-width="2" fill="none" marker-end="url(#SvgjsMarker1927)"></path></g><g id="SvgjsG1929"><path id="SvgjsPath1930" d="M1401 907.6666666666662L1401 934.7777777777774L1401 934.7777777777774L1401 961.8888888888885" stroke="#323232" stroke-width="2" fill="none" marker-end="url(#SvgjsMarker1931)"></path></g><g id="SvgjsG1933"><path id="SvgjsPath1934" d="M1401 1006.8888888888885L1401 1034.444444444444L1401 1034.444444444444L1401 1061.9999999999995" stroke="#323232" stroke-width="2" fill="none" marker-end="url(#SvgjsMarker1935)"></path></g><g id="SvgjsG1937"><path id="SvgjsPath1938" d="M1401 1106.9999999999995L1401 1137.6111111111106L1401 1137.6111111111106L1401 1168.2222222222217" stroke="#323232" stroke-width="2" fill="none" marker-end="url(#SvgjsMarker1939)"></path></g><g id="SvgjsG1941"><path id="SvgjsPath1942" d="M1152 731.8888888888885L1152 767.0809327846357L1152 767.0809327846357L1152 802.2729766803828" stroke="#323232" stroke-width="2" fill="none" marker-end="url(#SvgjsMarker1943)"></path></g></svg>